<?xml version="1.0" standalone="no"?>
<!DOCTYPE svg PUBLIC "-//W3C//DTD SVG 20010904//EN"
 "http://www.w3.org/TR/2001/REC-SVG-20010904/DTD/svg10.dtd">
<svg version="1.0" xmlns="http://www.w3.org/2000/svg"
 width="512.000000pt" height="512.000000pt" viewBox="0 0 512.000000 512.000000"
 preserveAspectRatio="xMidYMid meet">

<g transform="translate(0.000000,512.000000) scale(0.100000,-0.100000)"
fill="#000000" stroke="none">
<path d="M1392 4715 c-1404 -265 -1333 -248 -1372 -325 -20 -39 -20 -66 -20
-1830 0 -1764 0 -1791 20 -1830 39 -77 -35 -60 1394 -328 l1313 -246 47 18
c28 11 57 32 74 54 l27 35 3 269 3 268 1069 2 c1062 3 1069 3 1096 24 15 11
37 33 48 48 21 27 21 29 24 1672 2 1818 7 1686 -64 1740 l-37 29 -1069 3
-1068 2 0 256 c0 217 -3 261 -16 291 -25 51 -76 85 -132 89 -30 2 -503 -83
-1340 -241z m3408 -2155 l0 -1440 -960 0 -960 0 0 160 0 159 269 3 c254 3 271
4 297 24 44 32 66 68 71 116 7 58 -15 108 -63 144 l-37 29 -269 3 -268 3 0
159 0 159 269 3 c254 3 271 4 297 24 44 32 66 68 71 116 7 58 -15 108 -63 144
l-37 29 -269 3 -268 3 0 159 0 159 269 3 c254 3 271 4 297 24 44 32 66 68 71
116 7 58 -15 108 -63 144 l-37 29 -269 3 -268 3 0 159 0 159 269 3 c254 3 271
4 297 24 44 32 66 68 71 116 7 58 -15 108 -63 144 l-37 29 -269 3 -268 3 0
159 0 160 960 0 960 0 0 -1440z m-2653 944 c70 -34 109 -123 85 -193 -6 -17
-128 -182 -272 -366 -144 -185 -260 -340 -258 -345 2 -4 116 -137 253 -294
138 -158 258 -301 268 -319 53 -95 -30 -227 -144 -227 -65 0 -96 28 -340 307
-132 150 -244 271 -249 268 -5 -3 -101 -124 -213 -268 -113 -145 -217 -271
-232 -281 -94 -62 -230 4 -242 118 -4 28 0 55 11 77 9 19 118 164 241 323
l225 288 -68 77 c-262 298 -379 435 -395 463 -67 125 78 274 207 213 25 -12
103 -94 246 -257 l209 -239 65 83 c477 610 457 588 534 588 19 0 50 -7 69 -16z"/>
<path d="M3932 3664 c-97 -49 -121 -169 -51 -249 45 -51 78 -57 301 -53 180 3
199 5 224 24 44 32 66 68 71 116 7 58 -15 108 -63 144 l-37 29 -206 3 c-175 2
-211 0 -239 -14z"/>
<path d="M3932 3024 c-97 -49 -121 -169 -51 -249 45 -51 78 -57 301 -53 180 3
199 5 224 24 44 32 66 68 71 116 7 58 -15 108 -63 144 l-37 29 -206 3 c-175 2
-211 0 -239 -14z"/>
<path d="M3932 2384 c-97 -49 -121 -169 -51 -249 45 -51 78 -57 301 -53 180 3
199 5 224 24 44 32 66 68 71 116 7 58 -15 108 -63 144 l-37 29 -206 3 c-175 2
-211 0 -239 -14z"/>
<path d="M3932 1744 c-97 -49 -121 -169 -51 -249 45 -51 78 -57 301 -53 180 3
199 5 224 24 44 32 66 68 71 116 7 58 -15 108 -63 144 l-37 29 -206 3 c-175 2
-211 0 -239 -14z"/>
</g>
</svg>
